<mxfile host="Electron" modified="2023-05-30T17:44:49.625Z" agent="Mozilla/5.0 (X11; Linux x86_64) AppleWebKit/537.36 (KHTML, like Gecko) draw.io/21.2.8 Chrome/112.0.5615.165 Electron/24.2.0 Safari/537.36" etag="UJPfqzs-fy_RF8pj1Uw4" version="21.2.8" type="device" pages="4">
  <diagram id="CPmfdtWVn2Dkfq9E_Cbr" name="Camera configurer">
    <mxGraphModel dx="1434" dy="870" grid="1" gridSize="10" guides="1" tooltips="1" connect="1" arrows="1" fold="1" page="1" pageScale="1" pageWidth="850" pageHeight="1100" math="0" shadow="0">
      <root>
        <mxCell id="0" />
        <mxCell id="1" parent="0" />
        <mxCell id="mkJYUHWO4HMe0DvLK4CK-16" value="" style="rounded=1;whiteSpace=wrap;html=1;" parent="1" vertex="1">
          <mxGeometry x="90" y="30" width="360" height="230" as="geometry" />
        </mxCell>
        <mxCell id="mkJYUHWO4HMe0DvLK4CK-1" value="I2C&lt;br&gt;master" style="rounded=1;whiteSpace=wrap;html=1;fontStyle=1" parent="1" vertex="1">
          <mxGeometry x="290" y="60" width="120" height="120" as="geometry" />
        </mxCell>
        <mxCell id="mkJYUHWO4HMe0DvLK4CK-2" value="" style="endArrow=classic;html=1;exitX=1;exitY=0.25;exitDx=0;exitDy=0;startArrow=classic;startFill=1;endFill=1;" parent="1" source="mkJYUHWO4HMe0DvLK4CK-1" edge="1">
          <mxGeometry width="50" height="50" relative="1" as="geometry">
            <mxPoint x="500" y="80" as="sourcePoint" />
            <mxPoint x="500" y="90" as="targetPoint" />
          </mxGeometry>
        </mxCell>
        <mxCell id="mkJYUHWO4HMe0DvLK4CK-3" value="" style="endArrow=classic;html=1;exitX=1;exitY=0.75;exitDx=0;exitDy=0;startArrow=classic;startFill=1;endFill=1;" parent="1" source="mkJYUHWO4HMe0DvLK4CK-1" edge="1">
          <mxGeometry width="50" height="50" relative="1" as="geometry">
            <mxPoint x="470" y="130" as="sourcePoint" />
            <mxPoint x="500" y="150" as="targetPoint" />
          </mxGeometry>
        </mxCell>
        <mxCell id="mkJYUHWO4HMe0DvLK4CK-4" value="" style="endArrow=classic;html=1;entryX=0;entryY=0.5;entryDx=0;entryDy=0;exitX=1;exitY=0.5;exitDx=0;exitDy=0;startArrow=classic;startFill=1;endFill=1;" parent="1" source="mkJYUHWO4HMe0DvLK4CK-7" target="mkJYUHWO4HMe0DvLK4CK-1" edge="1">
          <mxGeometry width="50" height="50" relative="1" as="geometry">
            <mxPoint x="290" y="110" as="sourcePoint" />
            <mxPoint x="330" y="140" as="targetPoint" />
          </mxGeometry>
        </mxCell>
        <mxCell id="mkJYUHWO4HMe0DvLK4CK-7" value="FSM" style="rounded=1;whiteSpace=wrap;html=1;fontStyle=1" parent="1" vertex="1">
          <mxGeometry x="130" y="60" width="120" height="120" as="geometry" />
        </mxCell>
        <mxCell id="mkJYUHWO4HMe0DvLK4CK-9" value="Configuration arrays" style="rounded=0;whiteSpace=wrap;html=1;fontStyle=1" parent="1" vertex="1">
          <mxGeometry x="130" y="210" width="120" height="30" as="geometry" />
        </mxCell>
        <mxCell id="mkJYUHWO4HMe0DvLK4CK-11" value="" style="endArrow=classic;html=1;entryX=0.5;entryY=1;entryDx=0;entryDy=0;exitX=0.5;exitY=0;exitDx=0;exitDy=0;startArrow=classic;startFill=1;endFill=1;" parent="1" source="mkJYUHWO4HMe0DvLK4CK-9" target="mkJYUHWO4HMe0DvLK4CK-7" edge="1">
          <mxGeometry width="50" height="50" relative="1" as="geometry">
            <mxPoint x="330" y="290" as="sourcePoint" />
            <mxPoint x="240" y="200" as="targetPoint" />
          </mxGeometry>
        </mxCell>
        <mxCell id="mkJYUHWO4HMe0DvLK4CK-12" value="" style="endArrow=none;html=1;" parent="1" edge="1">
          <mxGeometry width="50" height="50" relative="1" as="geometry">
            <mxPoint x="265" y="125" as="sourcePoint" />
            <mxPoint x="275" y="115" as="targetPoint" />
          </mxGeometry>
        </mxCell>
        <mxCell id="mkJYUHWO4HMe0DvLK4CK-13" value="" style="endArrow=none;html=1;" parent="1" edge="1">
          <mxGeometry width="50" height="50" relative="1" as="geometry">
            <mxPoint x="185" y="200" as="sourcePoint" />
            <mxPoint x="195" y="190" as="targetPoint" />
          </mxGeometry>
        </mxCell>
        <mxCell id="mkJYUHWO4HMe0DvLK4CK-14" value="SDA" style="text;html=1;align=center;verticalAlign=middle;resizable=0;points=[];autosize=1;" parent="1" vertex="1">
          <mxGeometry x="410" y="70" width="40" height="20" as="geometry" />
        </mxCell>
        <mxCell id="mkJYUHWO4HMe0DvLK4CK-15" value="SCL" style="text;html=1;align=center;verticalAlign=middle;resizable=0;points=[];autosize=1;" parent="1" vertex="1">
          <mxGeometry x="410" y="130" width="40" height="20" as="geometry" />
        </mxCell>
        <mxCell id="mkJYUHWO4HMe0DvLK4CK-19" value="" style="endArrow=classic;html=1;entryX=0;entryY=0.25;entryDx=0;entryDy=0;startArrow=none;startFill=0;endFill=1;" parent="1" target="mkJYUHWO4HMe0DvLK4CK-7" edge="1">
          <mxGeometry width="50" height="50" relative="1" as="geometry">
            <mxPoint x="40" y="90" as="sourcePoint" />
            <mxPoint x="20" y="60" as="targetPoint" />
          </mxGeometry>
        </mxCell>
        <mxCell id="mkJYUHWO4HMe0DvLK4CK-20" value="" style="endArrow=none;html=1;entryX=0;entryY=0.75;entryDx=0;entryDy=0;startArrow=classic;startFill=1;endFill=0;" parent="1" target="mkJYUHWO4HMe0DvLK4CK-7" edge="1">
          <mxGeometry width="50" height="50" relative="1" as="geometry">
            <mxPoint x="40" y="150" as="sourcePoint" />
            <mxPoint x="130" y="139.76" as="targetPoint" />
          </mxGeometry>
        </mxCell>
        <mxCell id="mkJYUHWO4HMe0DvLK4CK-21" value="start" style="text;html=1;align=center;verticalAlign=middle;resizable=0;points=[];autosize=1;" parent="1" vertex="1">
          <mxGeometry x="50" y="70" width="40" height="20" as="geometry" />
        </mxCell>
        <mxCell id="mkJYUHWO4HMe0DvLK4CK-22" value="done" style="text;html=1;align=center;verticalAlign=middle;resizable=0;points=[];autosize=1;" parent="1" vertex="1">
          <mxGeometry x="50" y="130" width="40" height="20" as="geometry" />
        </mxCell>
        <mxCell id="mkJYUHWO4HMe0DvLK4CK-23" value="Camera configurer" style="text;html=1;align=center;verticalAlign=middle;resizable=0;points=[];autosize=1;fontStyle=1;fontSize=15;" parent="1" vertex="1">
          <mxGeometry x="100" y="30" width="150" height="20" as="geometry" />
        </mxCell>
      </root>
    </mxGraphModel>
  </diagram>
  <diagram id="aqqVUFKw38-NLGPxbQha" name="Camera simulator">
    <mxGraphModel dx="1434" dy="870" grid="1" gridSize="10" guides="1" tooltips="1" connect="1" arrows="1" fold="1" page="1" pageScale="1" pageWidth="850" pageHeight="1100" math="0" shadow="0">
      <root>
        <mxCell id="JgUyAKwy4Cmp6FqhI26P-0" />
        <mxCell id="JgUyAKwy4Cmp6FqhI26P-1" parent="JgUyAKwy4Cmp6FqhI26P-0" />
        <mxCell id="Y-10hChWPMYOKEEHNx8i-13" value="" style="rounded=1;whiteSpace=wrap;html=1;fontSize=15;align=left;" parent="JgUyAKwy4Cmp6FqhI26P-1" vertex="1">
          <mxGeometry x="480" y="10" width="200" height="190" as="geometry" />
        </mxCell>
        <mxCell id="JgUyAKwy4Cmp6FqhI26P-2" value="BRAM" style="rounded=1;whiteSpace=wrap;html=1;fontSize=18;fontStyle=1" parent="JgUyAKwy4Cmp6FqhI26P-1" vertex="1">
          <mxGeometry x="500" y="220" width="160" height="80" as="geometry" />
        </mxCell>
        <mxCell id="JgUyAKwy4Cmp6FqhI26P-3" value="MMCM" style="rounded=1;whiteSpace=wrap;html=1;fontSize=15;fontStyle=1" parent="JgUyAKwy4Cmp6FqhI26P-1" vertex="1">
          <mxGeometry x="520" y="40" width="120" height="60" as="geometry" />
        </mxCell>
        <mxCell id="Y-10hChWPMYOKEEHNx8i-4" style="edgeStyle=orthogonalEdgeStyle;rounded=0;orthogonalLoop=1;jettySize=auto;html=1;exitX=0;exitY=0.25;exitDx=0;exitDy=0;startArrow=classic;startFill=1;endArrow=oval;endFill=1;fontSize=15;" parent="JgUyAKwy4Cmp6FqhI26P-1" source="JgUyAKwy4Cmp6FqhI26P-4" edge="1">
          <mxGeometry relative="1" as="geometry">
            <mxPoint x="660" y="70" as="targetPoint" />
            <Array as="points">
              <mxPoint x="500" y="135" />
              <mxPoint x="500" y="110" />
              <mxPoint x="660" y="110" />
            </Array>
          </mxGeometry>
        </mxCell>
        <mxCell id="JgUyAKwy4Cmp6FqhI26P-4" value="FSM" style="rounded=1;whiteSpace=wrap;html=1;fontSize=15;fontStyle=1" parent="JgUyAKwy4Cmp6FqhI26P-1" vertex="1">
          <mxGeometry x="520" y="120" width="120" height="60" as="geometry" />
        </mxCell>
        <mxCell id="Y-10hChWPMYOKEEHNx8i-0" value="" style="endArrow=classic;html=1;fontSize=15;entryX=0;entryY=0.5;entryDx=0;entryDy=0;" parent="JgUyAKwy4Cmp6FqhI26P-1" target="JgUyAKwy4Cmp6FqhI26P-3" edge="1">
          <mxGeometry width="50" height="50" relative="1" as="geometry">
            <mxPoint x="425" y="70" as="sourcePoint" />
            <mxPoint x="440" y="50" as="targetPoint" />
          </mxGeometry>
        </mxCell>
        <mxCell id="Y-10hChWPMYOKEEHNx8i-1" value="clk" style="text;html=1;align=right;verticalAlign=middle;resizable=0;points=[];autosize=1;fontSize=15;" parent="JgUyAKwy4Cmp6FqhI26P-1" vertex="1">
          <mxGeometry x="447" y="52" width="30" height="20" as="geometry" />
        </mxCell>
        <mxCell id="Y-10hChWPMYOKEEHNx8i-2" value="pclk" style="text;html=1;align=left;verticalAlign=middle;resizable=0;points=[];autosize=1;fontSize=15;" parent="JgUyAKwy4Cmp6FqhI26P-1" vertex="1">
          <mxGeometry x="685" y="52" width="40" height="20" as="geometry" />
        </mxCell>
        <mxCell id="Y-10hChWPMYOKEEHNx8i-3" value="" style="endArrow=classic;html=1;fontSize=15;exitX=1;exitY=0.5;exitDx=0;exitDy=0;" parent="JgUyAKwy4Cmp6FqhI26P-1" source="JgUyAKwy4Cmp6FqhI26P-3" edge="1">
          <mxGeometry width="50" height="50" relative="1" as="geometry">
            <mxPoint x="560" y="210" as="sourcePoint" />
            <mxPoint x="750" y="70" as="targetPoint" />
          </mxGeometry>
        </mxCell>
        <mxCell id="Y-10hChWPMYOKEEHNx8i-5" value="" style="endArrow=classic;html=1;fontSize=15;entryX=0;entryY=0.5;entryDx=0;entryDy=0;" parent="JgUyAKwy4Cmp6FqhI26P-1" target="JgUyAKwy4Cmp6FqhI26P-4" edge="1">
          <mxGeometry width="50" height="50" relative="1" as="geometry">
            <mxPoint x="425" y="150" as="sourcePoint" />
            <mxPoint x="480" y="150" as="targetPoint" />
          </mxGeometry>
        </mxCell>
        <mxCell id="Y-10hChWPMYOKEEHNx8i-6" value="enable" style="text;html=1;align=right;verticalAlign=middle;resizable=0;points=[];autosize=1;fontSize=15;" parent="JgUyAKwy4Cmp6FqhI26P-1" vertex="1">
          <mxGeometry x="417" y="132" width="60" height="20" as="geometry" />
        </mxCell>
        <mxCell id="Y-10hChWPMYOKEEHNx8i-7" value="" style="endArrow=classic;html=1;fontSize=15;exitX=1;exitY=0.25;exitDx=0;exitDy=0;" parent="JgUyAKwy4Cmp6FqhI26P-1" source="JgUyAKwy4Cmp6FqhI26P-4" edge="1">
          <mxGeometry width="50" height="50" relative="1" as="geometry">
            <mxPoint x="650" y="140" as="sourcePoint" />
            <mxPoint x="750" y="135" as="targetPoint" />
          </mxGeometry>
        </mxCell>
        <mxCell id="Y-10hChWPMYOKEEHNx8i-8" value="" style="endArrow=classic;html=1;fontSize=15;exitX=1;exitY=0.5;exitDx=0;exitDy=0;" parent="JgUyAKwy4Cmp6FqhI26P-1" source="JgUyAKwy4Cmp6FqhI26P-4" edge="1">
          <mxGeometry width="50" height="50" relative="1" as="geometry">
            <mxPoint x="720.0000000000001" y="200" as="sourcePoint" />
            <mxPoint x="750" y="150" as="targetPoint" />
          </mxGeometry>
        </mxCell>
        <mxCell id="Y-10hChWPMYOKEEHNx8i-9" value="" style="endArrow=classic;html=1;fontSize=15;exitX=1;exitY=0.75;exitDx=0;exitDy=0;" parent="JgUyAKwy4Cmp6FqhI26P-1" source="JgUyAKwy4Cmp6FqhI26P-4" edge="1">
          <mxGeometry width="50" height="50" relative="1" as="geometry">
            <mxPoint x="740" y="210" as="sourcePoint" />
            <mxPoint x="750" y="165" as="targetPoint" />
          </mxGeometry>
        </mxCell>
        <mxCell id="Y-10hChWPMYOKEEHNx8i-10" value="pixel" style="text;html=1;align=left;verticalAlign=middle;resizable=0;points=[];autosize=1;fontSize=15;" parent="JgUyAKwy4Cmp6FqhI26P-1" vertex="1">
          <mxGeometry x="686" y="117" width="50" height="20" as="geometry" />
        </mxCell>
        <mxCell id="Y-10hChWPMYOKEEHNx8i-11" value="href" style="text;html=1;align=left;verticalAlign=middle;resizable=0;points=[];autosize=1;fontSize=15;" parent="JgUyAKwy4Cmp6FqhI26P-1" vertex="1">
          <mxGeometry x="686" y="132" width="40" height="20" as="geometry" />
        </mxCell>
        <mxCell id="Y-10hChWPMYOKEEHNx8i-12" value="vsync" style="text;html=1;align=left;verticalAlign=middle;resizable=0;points=[];autosize=1;fontSize=15;" parent="JgUyAKwy4Cmp6FqhI26P-1" vertex="1">
          <mxGeometry x="686" y="147" width="50" height="20" as="geometry" />
        </mxCell>
        <mxCell id="Y-10hChWPMYOKEEHNx8i-15" value="Camera simulator" style="text;html=1;align=center;verticalAlign=middle;resizable=0;points=[];autosize=1;fontSize=15;fontStyle=1" parent="JgUyAKwy4Cmp6FqhI26P-1" vertex="1">
          <mxGeometry x="490" y="10" width="140" height="20" as="geometry" />
        </mxCell>
        <mxCell id="Y-10hChWPMYOKEEHNx8i-17" value="" style="endArrow=classic;html=1;fontSize=15;entryX=0.5;entryY=1;entryDx=0;entryDy=0;exitX=0.5;exitY=0;exitDx=0;exitDy=0;strokeWidth=2;" parent="JgUyAKwy4Cmp6FqhI26P-1" source="JgUyAKwy4Cmp6FqhI26P-2" target="JgUyAKwy4Cmp6FqhI26P-4" edge="1">
          <mxGeometry width="50" height="50" relative="1" as="geometry">
            <mxPoint x="460" y="260" as="sourcePoint" />
            <mxPoint x="510" y="210" as="targetPoint" />
          </mxGeometry>
        </mxCell>
        <mxCell id="J8KVhOXX4IdNCzM4-JSM-0" value="" style="endArrow=none;html=1;" parent="JgUyAKwy4Cmp6FqhI26P-1" edge="1">
          <mxGeometry width="50" height="50" relative="1" as="geometry">
            <mxPoint x="725" y="140" as="sourcePoint" />
            <mxPoint x="735" y="130" as="targetPoint" />
          </mxGeometry>
        </mxCell>
        <mxCell id="J8KVhOXX4IdNCzM4-JSM-1" value="" style="endArrow=none;html=1;strokeWidth=2;" parent="JgUyAKwy4Cmp6FqhI26P-1" edge="1">
          <mxGeometry width="50" height="50" relative="1" as="geometry">
            <mxPoint x="575" y="215" as="sourcePoint" />
            <mxPoint x="585" y="205" as="targetPoint" />
          </mxGeometry>
        </mxCell>
      </root>
    </mxGraphModel>
  </diagram>
  <diagram id="W89uKHzXc-esMaOdjHdV" name="Camera simulator FSM">
    <mxGraphModel dx="1434" dy="870" grid="1" gridSize="10" guides="1" tooltips="1" connect="1" arrows="1" fold="1" page="1" pageScale="1" pageWidth="850" pageHeight="1100" math="0" shadow="0">
      <root>
        <mxCell id="ERSG4Y0lLHosCVVnaSEp-0" />
        <mxCell id="ERSG4Y0lLHosCVVnaSEp-1" parent="ERSG4Y0lLHosCVVnaSEp-0" />
        <mxCell id="ERSG4Y0lLHosCVVnaSEp-2" value="" style="group" parent="ERSG4Y0lLHosCVVnaSEp-1" vertex="1" connectable="0">
          <mxGeometry x="230" y="120" width="100" height="100" as="geometry" />
        </mxCell>
        <mxCell id="ERSG4Y0lLHosCVVnaSEp-3" value="" style="ellipse;whiteSpace=wrap;html=1;aspect=fixed;fontSize=18;" parent="ERSG4Y0lLHosCVVnaSEp-2" vertex="1">
          <mxGeometry width="100" height="100" as="geometry" />
        </mxCell>
        <mxCell id="ERSG4Y0lLHosCVVnaSEp-4" value="WAIT_ENABLE" style="ellipse;whiteSpace=wrap;html=1;aspect=fixed;fontSize=11;" parent="ERSG4Y0lLHosCVVnaSEp-2" vertex="1">
          <mxGeometry x="10" y="10" width="80" height="80" as="geometry" />
        </mxCell>
        <mxCell id="ERSG4Y0lLHosCVVnaSEp-6" value="WAITING" style="ellipse;whiteSpace=wrap;html=1;aspect=fixed;fontSize=11;" parent="ERSG4Y0lLHosCVVnaSEp-1" vertex="1">
          <mxGeometry x="240" y="420" width="80" height="80" as="geometry" />
        </mxCell>
        <mxCell id="ERSG4Y0lLHosCVVnaSEp-7" value="SET_VSYNC" style="ellipse;whiteSpace=wrap;html=1;aspect=fixed;fontSize=11;" parent="ERSG4Y0lLHosCVVnaSEp-1" vertex="1">
          <mxGeometry x="240" y="280" width="80" height="80" as="geometry" />
        </mxCell>
        <mxCell id="ERSG4Y0lLHosCVVnaSEp-8" value="CLEAR_VSYNC" style="ellipse;whiteSpace=wrap;html=1;aspect=fixed;fontSize=11;" parent="ERSG4Y0lLHosCVVnaSEp-1" vertex="1">
          <mxGeometry x="320" y="520" width="80" height="80" as="geometry" />
        </mxCell>
        <mxCell id="ERSG4Y0lLHosCVVnaSEp-9" value="IN_ROW" style="ellipse;whiteSpace=wrap;html=1;aspect=fixed;fontSize=11;" parent="ERSG4Y0lLHosCVVnaSEp-1" vertex="1">
          <mxGeometry x="160" y="520" width="80" height="80" as="geometry" />
        </mxCell>
        <mxCell id="ERSG4Y0lLHosCVVnaSEp-10" value="" style="endArrow=classic;html=1;strokeWidth=2;fontSize=11;exitX=0.5;exitY=1;exitDx=0;exitDy=0;entryX=0.5;entryY=0;entryDx=0;entryDy=0;" parent="ERSG4Y0lLHosCVVnaSEp-1" source="ERSG4Y0lLHosCVVnaSEp-3" target="ERSG4Y0lLHosCVVnaSEp-7" edge="1">
          <mxGeometry width="50" height="50" relative="1" as="geometry">
            <mxPoint x="460" y="270" as="sourcePoint" />
            <mxPoint x="280" y="250" as="targetPoint" />
          </mxGeometry>
        </mxCell>
        <mxCell id="ERSG4Y0lLHosCVVnaSEp-11" value="enable" style="text;html=1;align=center;verticalAlign=middle;resizable=0;points=[];autosize=1;fontSize=11;" parent="ERSG4Y0lLHosCVVnaSEp-1" vertex="1">
          <mxGeometry x="280" y="240" width="50" height="20" as="geometry" />
        </mxCell>
        <mxCell id="ERSG4Y0lLHosCVVnaSEp-12" value="" style="endArrow=classic;html=1;strokeWidth=2;fontSize=11;exitX=0.5;exitY=1;exitDx=0;exitDy=0;entryX=0.5;entryY=0;entryDx=0;entryDy=0;" parent="ERSG4Y0lLHosCVVnaSEp-1" source="ERSG4Y0lLHosCVVnaSEp-7" target="ERSG4Y0lLHosCVVnaSEp-6" edge="1">
          <mxGeometry width="50" height="50" relative="1" as="geometry">
            <mxPoint x="290" y="250" as="sourcePoint" />
            <mxPoint x="290" y="290" as="targetPoint" />
          </mxGeometry>
        </mxCell>
        <mxCell id="ERSG4Y0lLHosCVVnaSEp-17" value="" style="endArrow=classic;html=1;strokeWidth=2;fontSize=11;exitX=0;exitY=0;exitDx=0;exitDy=0;entryX=0;entryY=1;entryDx=0;entryDy=0;curved=1;" parent="ERSG4Y0lLHosCVVnaSEp-1" source="ERSG4Y0lLHosCVVnaSEp-6" target="ERSG4Y0lLHosCVVnaSEp-3" edge="1">
          <mxGeometry width="50" height="50" relative="1" as="geometry">
            <mxPoint x="190" y="380" as="sourcePoint" />
            <mxPoint x="220" y="230" as="targetPoint" />
            <Array as="points">
              <mxPoint x="190" y="320" />
            </Array>
          </mxGeometry>
        </mxCell>
        <mxCell id="ERSG4Y0lLHosCVVnaSEp-18" value="" style="endArrow=classic;html=1;strokeWidth=2;fontSize=11;exitX=0.9;exitY=0.798;exitDx=0;exitDy=0;exitPerimeter=0;entryX=0.268;entryY=0.062;entryDx=0;entryDy=0;entryPerimeter=0;curved=1;" parent="ERSG4Y0lLHosCVVnaSEp-1" source="ERSG4Y0lLHosCVVnaSEp-6" target="ERSG4Y0lLHosCVVnaSEp-8" edge="1">
          <mxGeometry width="50" height="50" relative="1" as="geometry">
            <mxPoint x="370" y="500" as="sourcePoint" />
            <mxPoint x="420" y="450" as="targetPoint" />
            <Array as="points">
              <mxPoint x="330" y="490" />
            </Array>
          </mxGeometry>
        </mxCell>
        <mxCell id="ERSG4Y0lLHosCVVnaSEp-20" value="" style="endArrow=classic;html=1;strokeWidth=2;fontSize=11;exitX=0.12;exitY=0.182;exitDx=0;exitDy=0;entryX=0.751;entryY=0.936;entryDx=0;entryDy=0;entryPerimeter=0;exitPerimeter=0;curved=1;" parent="ERSG4Y0lLHosCVVnaSEp-1" source="ERSG4Y0lLHosCVVnaSEp-8" target="ERSG4Y0lLHosCVVnaSEp-6" edge="1">
          <mxGeometry width="50" height="50" relative="1" as="geometry">
            <mxPoint x="310" y="532" as="sourcePoint" />
            <mxPoint x="300" y="510" as="targetPoint" />
            <Array as="points">
              <mxPoint x="310" y="530" />
            </Array>
          </mxGeometry>
        </mxCell>
        <mxCell id="ERSG4Y0lLHosCVVnaSEp-22" value="" style="endArrow=classic;html=1;strokeWidth=2;fontSize=11;entryX=1;entryY=0;entryDx=0;entryDy=0;exitX=0.222;exitY=0.911;exitDx=0;exitDy=0;exitPerimeter=0;curved=1;" parent="ERSG4Y0lLHosCVVnaSEp-1" source="ERSG4Y0lLHosCVVnaSEp-6" target="ERSG4Y0lLHosCVVnaSEp-9" edge="1">
          <mxGeometry width="50" height="50" relative="1" as="geometry">
            <mxPoint x="260" y="560" as="sourcePoint" />
            <mxPoint x="310" y="510" as="targetPoint" />
            <Array as="points">
              <mxPoint x="258" y="520" />
            </Array>
          </mxGeometry>
        </mxCell>
        <mxCell id="ERSG4Y0lLHosCVVnaSEp-23" value="" style="endArrow=classic;html=1;strokeWidth=2;fontSize=11;entryX=0.094;entryY=0.787;entryDx=0;entryDy=0;entryPerimeter=0;exitX=0.698;exitY=0.042;exitDx=0;exitDy=0;exitPerimeter=0;curved=1;" parent="ERSG4Y0lLHosCVVnaSEp-1" source="ERSG4Y0lLHosCVVnaSEp-9" target="ERSG4Y0lLHosCVVnaSEp-6" edge="1">
          <mxGeometry width="50" height="50" relative="1" as="geometry">
            <mxPoint x="188.40000000000003" y="480.79999999999995" as="sourcePoint" />
            <mxPoint x="160.00000000000006" y="520" as="targetPoint" />
            <Array as="points">
              <mxPoint x="216" y="500" />
            </Array>
          </mxGeometry>
        </mxCell>
        <mxCell id="ERSG4Y0lLHosCVVnaSEp-24" value="timeout" style="text;html=1;align=left;verticalAlign=middle;resizable=0;points=[];autosize=1;fontSize=11;" parent="ERSG4Y0lLHosCVVnaSEp-1" vertex="1">
          <mxGeometry x="330" y="480" width="50" height="20" as="geometry" />
        </mxCell>
        <mxCell id="ERSG4Y0lLHosCVVnaSEp-25" value="timeout" style="text;html=1;align=right;verticalAlign=middle;resizable=0;points=[];autosize=1;fontSize=11;" parent="ERSG4Y0lLHosCVVnaSEp-1" vertex="1">
          <mxGeometry x="240" y="510" width="50" height="20" as="geometry" />
        </mxCell>
        <mxCell id="ERSG4Y0lLHosCVVnaSEp-27" value="row end" style="text;html=1;align=right;verticalAlign=middle;resizable=0;points=[];autosize=1;fontSize=11;" parent="ERSG4Y0lLHosCVVnaSEp-1" vertex="1">
          <mxGeometry x="170" y="490" width="50" height="20" as="geometry" />
        </mxCell>
        <mxCell id="ERSG4Y0lLHosCVVnaSEp-28" value="timeout" style="text;html=1;align=right;verticalAlign=middle;resizable=0;points=[];autosize=1;fontSize=11;" parent="ERSG4Y0lLHosCVVnaSEp-1" vertex="1">
          <mxGeometry x="160" y="300" width="50" height="20" as="geometry" />
        </mxCell>
      </root>
    </mxGraphModel>
  </diagram>
  <diagram id="cMNWsZL01Uejs0lNtqW5" name="Camera module">
    <mxGraphModel dx="1434" dy="870" grid="1" gridSize="10" guides="1" tooltips="1" connect="1" arrows="1" fold="1" page="1" pageScale="1" pageWidth="850" pageHeight="1100" math="0" shadow="0">
      <root>
        <mxCell id="Lrvl8gSn-BudzMU_Drps-0" />
        <mxCell id="Lrvl8gSn-BudzMU_Drps-1" parent="Lrvl8gSn-BudzMU_Drps-0" />
        <mxCell id="Lrvl8gSn-BudzMU_Drps-2" value="Camera" style="rounded=1;whiteSpace=wrap;html=1;strokeWidth=1;fontSize=24;" parent="Lrvl8gSn-BudzMU_Drps-1" vertex="1">
          <mxGeometry x="200" y="80" width="230" height="250" as="geometry" />
        </mxCell>
        <mxCell id="Lrvl8gSn-BudzMU_Drps-3" value="" style="endArrow=none;html=1;strokeColor=#000000;strokeWidth=1;fontSize=21;" parent="Lrvl8gSn-BudzMU_Drps-1" edge="1">
          <mxGeometry width="50" height="50" relative="1" as="geometry">
            <mxPoint x="430" y="123.94000000000005" as="sourcePoint" />
            <mxPoint x="510" y="124" as="targetPoint" />
          </mxGeometry>
        </mxCell>
        <mxCell id="Lrvl8gSn-BudzMU_Drps-4" value="&lt;font style=&quot;font-size: 13px&quot;&gt;SCL&lt;/font&gt;" style="text;html=1;align=right;verticalAlign=middle;resizable=0;points=[];autosize=1;fontSize=24;" parent="Lrvl8gSn-BudzMU_Drps-1" vertex="1">
          <mxGeometry x="380" y="100" width="40" height="40" as="geometry" />
        </mxCell>
        <mxCell id="Lrvl8gSn-BudzMU_Drps-5" value="&lt;font style=&quot;font-size: 13px&quot;&gt;SDA&lt;/font&gt;" style="text;html=1;align=right;verticalAlign=middle;resizable=0;points=[];autosize=1;fontSize=24;" parent="Lrvl8gSn-BudzMU_Drps-1" vertex="1">
          <mxGeometry x="380" y="134" width="40" height="40" as="geometry" />
        </mxCell>
        <mxCell id="Lrvl8gSn-BudzMU_Drps-6" value="" style="endArrow=none;html=1;strokeColor=#000000;strokeWidth=1;fontSize=21;" parent="Lrvl8gSn-BudzMU_Drps-1" edge="1">
          <mxGeometry width="50" height="50" relative="1" as="geometry">
            <mxPoint x="430" y="159" as="sourcePoint" />
            <mxPoint x="510" y="159" as="targetPoint" />
          </mxGeometry>
        </mxCell>
        <mxCell id="Lrvl8gSn-BudzMU_Drps-7" value="&lt;font style=&quot;font-size: 13px&quot;&gt;pclk&lt;/font&gt;" style="text;html=1;align=right;verticalAlign=middle;resizable=0;points=[];autosize=1;fontSize=24;" parent="Lrvl8gSn-BudzMU_Drps-1" vertex="1">
          <mxGeometry x="380" y="168" width="40" height="40" as="geometry" />
        </mxCell>
        <mxCell id="Lrvl8gSn-BudzMU_Drps-8" value="&lt;font style=&quot;font-size: 13px&quot;&gt;pixel&lt;/font&gt;" style="text;html=1;align=right;verticalAlign=middle;resizable=0;points=[];autosize=1;fontSize=24;" parent="Lrvl8gSn-BudzMU_Drps-1" vertex="1">
          <mxGeometry x="380" y="202" width="40" height="40" as="geometry" />
        </mxCell>
        <mxCell id="Lrvl8gSn-BudzMU_Drps-9" value="&lt;font style=&quot;font-size: 13px&quot;&gt;href&lt;/font&gt;" style="text;html=1;align=right;verticalAlign=middle;resizable=0;points=[];autosize=1;fontSize=24;" parent="Lrvl8gSn-BudzMU_Drps-1" vertex="1">
          <mxGeometry x="380" y="236" width="40" height="40" as="geometry" />
        </mxCell>
        <mxCell id="Lrvl8gSn-BudzMU_Drps-10" value="&lt;font style=&quot;font-size: 13px&quot;&gt;vsync&lt;/font&gt;" style="text;html=1;align=right;verticalAlign=middle;resizable=0;points=[];autosize=1;fontSize=24;" parent="Lrvl8gSn-BudzMU_Drps-1" vertex="1">
          <mxGeometry x="370" y="270" width="50" height="40" as="geometry" />
        </mxCell>
        <mxCell id="Lrvl8gSn-BudzMU_Drps-11" value="" style="endArrow=none;html=1;strokeColor=#000000;strokeWidth=1;fontSize=21;" parent="Lrvl8gSn-BudzMU_Drps-1" edge="1">
          <mxGeometry width="50" height="50" relative="1" as="geometry">
            <mxPoint x="430" y="194" as="sourcePoint" />
            <mxPoint x="510" y="194" as="targetPoint" />
          </mxGeometry>
        </mxCell>
        <mxCell id="Lrvl8gSn-BudzMU_Drps-12" value="" style="endArrow=none;html=1;strokeColor=#000000;strokeWidth=1;fontSize=21;" parent="Lrvl8gSn-BudzMU_Drps-1" edge="1">
          <mxGeometry width="50" height="50" relative="1" as="geometry">
            <mxPoint x="430" y="227" as="sourcePoint" />
            <mxPoint x="510" y="227" as="targetPoint" />
          </mxGeometry>
        </mxCell>
        <mxCell id="Lrvl8gSn-BudzMU_Drps-13" value="" style="endArrow=none;html=1;strokeColor=#000000;strokeWidth=1;fontSize=21;" parent="Lrvl8gSn-BudzMU_Drps-1" edge="1">
          <mxGeometry width="50" height="50" relative="1" as="geometry">
            <mxPoint x="430" y="260.86" as="sourcePoint" />
            <mxPoint x="510" y="261" as="targetPoint" />
          </mxGeometry>
        </mxCell>
        <mxCell id="Lrvl8gSn-BudzMU_Drps-14" value="" style="endArrow=none;html=1;strokeColor=#000000;strokeWidth=1;fontSize=21;" parent="Lrvl8gSn-BudzMU_Drps-1" edge="1">
          <mxGeometry width="50" height="50" relative="1" as="geometry">
            <mxPoint x="430" y="295.8600000000001" as="sourcePoint" />
            <mxPoint x="510" y="296" as="targetPoint" />
          </mxGeometry>
        </mxCell>
        <mxCell id="Lrvl8gSn-BudzMU_Drps-15" value="" style="endArrow=none;html=1;fontSize=24;" parent="Lrvl8gSn-BudzMU_Drps-1" edge="1">
          <mxGeometry width="50" height="50" relative="1" as="geometry">
            <mxPoint x="466" y="231" as="sourcePoint" />
            <mxPoint x="476" y="221.5" as="targetPoint" />
          </mxGeometry>
        </mxCell>
        <mxCell id="Lrvl8gSn-BudzMU_Drps-16" value="&lt;font style=&quot;font-size: 13px&quot;&gt;[7:0]&lt;/font&gt;" style="text;html=1;align=center;verticalAlign=middle;resizable=0;points=[];autosize=1;fontSize=24;" parent="Lrvl8gSn-BudzMU_Drps-1" vertex="1">
          <mxGeometry x="452" y="187" width="40" height="40" as="geometry" />
        </mxCell>
        <mxCell id="Lrvl8gSn-BudzMU_Drps-17" value="" style="shape=curlyBracket;whiteSpace=wrap;html=1;rounded=1;flipH=1;" parent="Lrvl8gSn-BudzMU_Drps-1" vertex="1">
          <mxGeometry x="515" y="190" width="20" height="110" as="geometry" />
        </mxCell>
        <mxCell id="Lrvl8gSn-BudzMU_Drps-18" value="&lt;font style=&quot;font-size: 17px;&quot;&gt;Image data&lt;/font&gt;" style="text;html=1;align=center;verticalAlign=middle;resizable=0;points=[];autosize=1;fontSize=17;rotation=90;fontStyle=1" parent="Lrvl8gSn-BudzMU_Drps-1" vertex="1">
          <mxGeometry x="497" y="260" width="110" height="30" as="geometry" />
        </mxCell>
        <mxCell id="Lrvl8gSn-BudzMU_Drps-19" value="" style="shape=curlyBracket;whiteSpace=wrap;html=1;rounded=1;flipH=1;" parent="Lrvl8gSn-BudzMU_Drps-1" vertex="1">
          <mxGeometry x="515" y="122" width="20" height="40" as="geometry" />
        </mxCell>
        <mxCell id="Lrvl8gSn-BudzMU_Drps-20" value="&lt;font style=&quot;font-size: 17px;&quot;&gt;Configuration&lt;/font&gt;" style="text;html=1;align=center;verticalAlign=middle;resizable=0;points=[];autosize=1;fontSize=17;rotation=90;fontStyle=1" parent="Lrvl8gSn-BudzMU_Drps-1" vertex="1">
          <mxGeometry x="487" y="105" width="130" height="30" as="geometry" />
        </mxCell>
        <mxCell id="Lrvl8gSn-BudzMU_Drps-24" value="" style="endArrow=none;html=1;strokeColor=#000000;strokeWidth=1;fontSize=21;" parent="Lrvl8gSn-BudzMU_Drps-1" edge="1">
          <mxGeometry width="50" height="50" relative="1" as="geometry">
            <mxPoint x="120" y="158.67000000000002" as="sourcePoint" />
            <mxPoint x="200" y="158.67000000000002" as="targetPoint" />
          </mxGeometry>
        </mxCell>
        <mxCell id="Lrvl8gSn-BudzMU_Drps-25" value="" style="endArrow=none;html=1;strokeColor=#000000;strokeWidth=1;fontSize=21;" parent="Lrvl8gSn-BudzMU_Drps-1" edge="1">
          <mxGeometry width="50" height="50" relative="1" as="geometry">
            <mxPoint x="120" y="193.67000000000002" as="sourcePoint" />
            <mxPoint x="200" y="193.67000000000002" as="targetPoint" />
          </mxGeometry>
        </mxCell>
        <mxCell id="Lrvl8gSn-BudzMU_Drps-26" value="" style="endArrow=none;html=1;strokeColor=#000000;strokeWidth=1;fontSize=21;" parent="Lrvl8gSn-BudzMU_Drps-1" edge="1">
          <mxGeometry width="50" height="50" relative="1" as="geometry">
            <mxPoint x="120" y="226.67000000000002" as="sourcePoint" />
            <mxPoint x="200" y="226.67000000000002" as="targetPoint" />
          </mxGeometry>
        </mxCell>
        <mxCell id="Lrvl8gSn-BudzMU_Drps-27" value="&lt;font style=&quot;font-size: 13px&quot;&gt;mclk&lt;/font&gt;" style="text;html=1;align=left;verticalAlign=middle;resizable=0;points=[];autosize=1;fontSize=24;" parent="Lrvl8gSn-BudzMU_Drps-1" vertex="1">
          <mxGeometry x="208" y="134" width="40" height="40" as="geometry" />
        </mxCell>
        <mxCell id="Lrvl8gSn-BudzMU_Drps-31" value="&lt;font style=&quot;font-size: 13px&quot;&gt;reset&lt;/font&gt;" style="text;html=1;align=left;verticalAlign=middle;resizable=0;points=[];autosize=1;fontSize=24;" parent="Lrvl8gSn-BudzMU_Drps-1" vertex="1">
          <mxGeometry x="208" y="202" width="40" height="40" as="geometry" />
        </mxCell>
        <mxCell id="Lrvl8gSn-BudzMU_Drps-32" value="&lt;font style=&quot;font-size: 13px&quot;&gt;pwdn&lt;/font&gt;" style="text;html=1;align=left;verticalAlign=middle;resizable=0;points=[];autosize=1;fontSize=24;" parent="Lrvl8gSn-BudzMU_Drps-1" vertex="1">
          <mxGeometry x="208" y="168" width="50" height="40" as="geometry" />
        </mxCell>
        <mxCell id="Lrvl8gSn-BudzMU_Drps-33" value="" style="shape=curlyBracket;whiteSpace=wrap;html=1;rounded=1;flipH=1;rotation=-180;" parent="Lrvl8gSn-BudzMU_Drps-1" vertex="1">
          <mxGeometry x="95" y="155" width="20" height="75" as="geometry" />
        </mxCell>
        <mxCell id="Lrvl8gSn-BudzMU_Drps-34" value="&lt;font style=&quot;font-size: 17px;&quot;&gt;Control&lt;/font&gt;" style="text;html=1;align=center;verticalAlign=middle;resizable=0;points=[];autosize=1;fontSize=17;rotation=-90;fontStyle=1" parent="Lrvl8gSn-BudzMU_Drps-1" vertex="1">
          <mxGeometry x="40" y="177.5" width="80" height="30" as="geometry" />
        </mxCell>
      </root>
    </mxGraphModel>
  </diagram>
</mxfile>
